<svg width="24" height="24" viewBox="0 0 24 24" fill="none" xmlns="http://www.w3.org/2000/svg">
<g clip-path="url(#clip0_295_2314)">
<path d="M19.2727 20.0839C19.2727 20.3269 19.1769 20.5599 19.0065 20.7317C18.836 20.9035 18.6047 21 18.3636 21H5.63636C5.39526 21 5.16403 20.9035 4.99354 20.7317C4.82305 20.5599 4.72727 20.3269 4.72727 20.0839V11.8389H2L11.3882 3.23852C11.5556 3.08505 11.7737 3 12 3C12.2263 3 12.4444 3.08505 12.6118 3.23852L22 11.8389H19.2727V20.0839ZM9.27273 10.9228V16.4195H14.7273V10.9228H9.27273ZM11.0909 12.755H12.9091V14.5873H11.0909V12.755Z" fill="#4E33FF"/>
</g>
<defs>
<clipPath id="clip0_295_2314">
<rect width="24" height="24" fill="white"/>
</clipPath>
</defs>
</svg>
