<svg width="32" height="32" viewBox="0 0 32 32" fill="none" xmlns="http://www.w3.org/2000/svg">
<g clip-path="url(#clip0_269_1546)">
<path d="M16.0001 29.333C8.63608 29.333 2.66675 23.3637 2.66675 15.9997C2.66675 8.63572 8.63608 2.66638 16.0001 2.66638C23.3641 2.66638 29.3334 8.63572 29.3334 15.9997C29.3334 23.3637 23.3641 29.333 16.0001 29.333ZM11.8534 17.5597L11.8707 17.5504L13.0307 21.377C13.1801 21.7917 13.3854 21.8664 13.6347 21.8317C13.8854 21.7984 14.0174 21.6637 14.1814 21.5064L15.7654 19.9757L19.1654 22.493C19.7867 22.8357 20.2334 22.6584 20.3881 21.917L22.5974 11.4877C22.8414 10.517 22.4147 10.1277 21.6614 10.437L8.68408 15.4504C7.79875 15.805 7.80408 16.301 8.52408 16.521L11.8534 17.561V17.5597Z" fill="white"/>
</g>
<defs>
<clipPath id="clip0_269_1546">
<rect width="32" height="32" fill="white"/>
</clipPath>
</defs>
</svg>
