<svg width="28" height="28" viewBox="0 0 28 28" fill="none" xmlns="http://www.w3.org/2000/svg">
<path d="M0.672145 27.333L2.47481 20.709C1.287 18.6729 0.66294 16.357 0.666812 13.9997C0.666812 6.63572 6.63614 0.666382 14.0001 0.666382C21.3641 0.666382 27.3335 6.63572 27.3335 13.9997C27.3335 21.3637 21.3641 27.333 14.0001 27.333C11.6438 27.3368 9.32902 26.7133 7.29348 25.5264L0.672145 27.333ZM9.18814 7.74371C9.01596 7.75441 8.84771 7.79976 8.69348 7.87705C8.54884 7.95895 8.41681 8.06135 8.30148 8.18105C8.14148 8.33171 8.05081 8.46238 7.95348 8.58905C7.46069 9.23038 7.19562 10.0176 7.20014 10.8264C7.20281 11.4797 7.37348 12.1157 7.64014 12.7104C8.18548 13.913 9.08281 15.1864 10.2681 16.3664C10.5535 16.6504 10.8321 16.9357 11.1321 17.201C12.6033 18.4963 14.3565 19.4304 16.2521 19.929L17.0108 20.045C17.2575 20.0584 17.5041 20.0397 17.7521 20.0277C18.1405 20.0077 18.5196 19.9025 18.8628 19.7197C19.0841 19.6024 19.1881 19.5437 19.3735 19.4264C19.3735 19.4264 19.4308 19.389 19.5401 19.3064C19.7201 19.173 19.8308 19.0784 19.9801 18.9224C20.0908 18.8077 20.1868 18.673 20.2601 18.5197C20.3641 18.3024 20.4681 17.8877 20.5108 17.5424C20.5428 17.2784 20.5335 17.1344 20.5295 17.045C20.5241 16.9024 20.4055 16.7544 20.2761 16.6917L19.5001 16.3437C19.5001 16.3437 18.3401 15.8384 17.6321 15.5157C17.5575 15.4832 17.4775 15.4646 17.3961 15.461C17.3049 15.4517 17.2127 15.4619 17.1258 15.4912C17.0389 15.5204 16.9592 15.5678 16.8921 15.6304V15.6277C16.8855 15.6277 16.7961 15.7037 15.8321 16.8717C15.7768 16.9461 15.7006 17.0023 15.6132 17.0331C15.5258 17.064 15.4312 17.0681 15.3415 17.045C15.2546 17.0218 15.1695 16.9924 15.0868 16.957C14.9215 16.8877 14.8641 16.861 14.7508 16.8117L14.7441 16.809C13.9814 16.476 13.2751 16.0262 12.6508 15.4757C12.4828 15.329 12.3268 15.169 12.1668 15.0144C11.6422 14.512 11.1851 13.9437 10.8068 13.3237L10.7281 13.197C10.6716 13.1119 10.626 13.0201 10.5921 12.9237C10.5415 12.7277 10.6735 12.5704 10.6735 12.5704C10.6735 12.5704 10.9975 12.2157 11.1481 12.0237C11.2736 11.8641 11.3906 11.6981 11.4988 11.5264C11.6561 11.273 11.7055 11.013 11.6228 10.8117C11.2495 9.89971 10.8628 8.99171 10.4655 8.09038C10.3868 7.91171 10.1535 7.78371 9.94148 7.75838C9.86948 7.75038 9.79748 7.74238 9.72548 7.73705C9.54642 7.72815 9.36699 7.72993 9.18814 7.74238V7.74371Z" fill="#333333"/>
</svg>
