<svg width="28" height="28" viewBox="0 0 28 28" fill="none" xmlns="http://www.w3.org/2000/svg">
<path d="M14.0001 27.333C6.63613 27.333 0.666794 21.3637 0.666794 13.9997C0.666794 6.63572 6.63613 0.666382 14.0001 0.666382C21.3641 0.666382 27.3335 6.63572 27.3335 13.9997C27.3335 21.3637 21.3641 27.333 14.0001 27.333ZM9.85346 15.5597L9.87079 15.5504L11.0308 19.377C11.1801 19.7917 11.3855 19.8664 11.6348 19.8317C11.8855 19.7984 12.0175 19.6637 12.1815 19.5064L13.7655 17.9757L17.1655 20.493C17.7868 20.8357 18.2335 20.6584 18.3881 19.917L20.5975 9.48771C20.8415 8.51705 20.4148 8.12771 19.6615 8.43705L6.68413 13.4504C5.79879 13.805 5.80413 14.301 6.52413 14.521L9.85346 15.561V15.5597Z" fill="#333333"/>
</svg>
