<svg width="32" height="32" viewBox="0 0 32 32" fill="none" xmlns="http://www.w3.org/2000/svg">
<rect width="32" height="32" fill="#E5E5E5"/>
<g id="Home - Tablet" clip-path="url(#clip0_188_70)">
<rect width="768" height="3778" transform="translate(-657 -3552)" fill="#ECF3FB"/>
<g id="Group 3677920">
<rect id="Rectangle 10003" x="-657" y="-40" width="768" height="266" fill="#1749B3"/>
<g id="Group 3677616">
<g id="Group 3676455">
<g id="whatsapp-fill 1" clip-path="url(#clip1_188_70)">
<path id="Vector" d="M2.6721 29.333L4.47477 22.709C3.28695 20.6729 2.66289 18.357 2.66677 15.9997C2.66677 8.63572 8.6361 2.66638 16.0001 2.66638C23.3641 2.66638 29.3334 8.63572 29.3334 15.9997C29.3334 23.3637 23.3641 29.333 16.0001 29.333C13.6438 29.3368 11.329 28.7133 9.29343 27.5264L2.6721 29.333ZM11.1881 9.74371C11.0159 9.75441 10.8477 9.79976 10.6934 9.87705C10.5488 9.95895 10.4168 10.0613 10.3014 10.181C10.1414 10.3317 10.0508 10.4624 9.95343 10.589C9.46065 11.2304 9.19558 12.0176 9.2001 12.8264C9.20277 13.4797 9.37343 14.1157 9.6401 14.7104C10.1854 15.913 11.0828 17.1864 12.2681 18.3664C12.5534 18.6504 12.8321 18.9357 13.1321 19.201C14.6033 20.4963 16.3564 21.4304 18.2521 21.929L19.0108 22.045C19.2574 22.0584 19.5041 22.0397 19.7521 22.0277C20.1404 22.0077 20.5196 21.9025 20.8628 21.7197C21.0841 21.6024 21.1881 21.5437 21.3734 21.4264C21.3734 21.4264 21.4308 21.389 21.5401 21.3064C21.7201 21.173 21.8308 21.0784 21.9801 20.9224C22.0908 20.8077 22.1868 20.673 22.2601 20.5197C22.3641 20.3024 22.4681 19.8877 22.5108 19.5424C22.5428 19.2784 22.5334 19.1344 22.5294 19.045C22.5241 18.9024 22.4054 18.7544 22.2761 18.6917L21.5001 18.3437C21.5001 18.3437 20.3401 17.8384 19.6321 17.5157C19.5574 17.4832 19.4775 17.4646 19.3961 17.461C19.3049 17.4517 19.2127 17.4619 19.1258 17.4912C19.0388 17.5204 18.9592 17.5678 18.8921 17.6304V17.6277C18.8854 17.6277 18.7961 17.7037 17.8321 18.8717C17.7768 18.9461 17.7006 19.0023 17.6132 19.0331C17.5258 19.064 17.4312 19.0681 17.3414 19.045C17.2546 19.0218 17.1694 18.9924 17.0868 18.957C16.9214 18.8877 16.8641 18.861 16.7508 18.8117L16.7441 18.809C15.9813 18.476 15.2751 18.0262 14.6508 17.4757C14.4828 17.329 14.3268 17.169 14.1668 17.0144C13.6422 16.512 13.1851 15.9437 12.8068 15.3237L12.7281 15.197C12.6716 15.1119 12.6259 15.0201 12.5921 14.9237C12.5414 14.7277 12.6734 14.5704 12.6734 14.5704C12.6734 14.5704 12.9974 14.2157 13.1481 14.0237C13.2736 13.8641 13.3906 13.6981 13.4988 13.5264C13.6561 13.273 13.7054 13.013 13.6228 12.8117C13.2494 11.8997 12.8628 10.9917 12.4654 10.0904C12.3868 9.91171 12.1534 9.78371 11.9414 9.75838C11.8694 9.75038 11.7974 9.74238 11.7254 9.73705C11.5464 9.72815 11.3669 9.72993 11.1881 9.74238V9.74371Z" fill="white"/>
</g>
</g>
</g>
</g>
</g>
<defs>
<clipPath id="clip0_188_70">
<rect width="768" height="3778" fill="white" transform="translate(-657 -3552)"/>
</clipPath>
<clipPath id="clip1_188_70">
<rect width="32" height="32" fill="white"/>
</clipPath>
</defs>
</svg>
